<svg width="53" height="52" viewBox="0 0 53 52" fill="none" xmlns="http://www.w3.org/2000/svg">
<mask id="path-1-inside-1_26_124" fill="white">
<path fill-rule="evenodd" clip-rule="evenodd" d="M26.1426 0L26 0.142578L40 14.1426V52H0V0H26.1426Z"/>
</mask>
<path fill-rule="evenodd" clip-rule="evenodd" d="M26.1426 0L26 0.142578L40 14.1426V52H0V0H26.1426Z" fill="white"/>
<path d="M26 0.142578L25.2929 -0.564529L24.5858 0.142578L25.2929 0.849685L26 0.142578ZM26.1426 0L26.8497 0.707107L28.5568 -1H26.1426V0ZM40 14.1426H41V13.7284L40.7071 13.4355L40 14.1426ZM40 52V53H41V52H40ZM0 52H-1V53H0V52ZM0 0V-1H-1V0H0ZM26.7071 0.849685L26.8497 0.707107L25.4355 -0.707107L25.2929 -0.564529L26.7071 0.849685ZM40.7071 13.4355L26.7071 -0.564529L25.2929 0.849685L39.2929 14.8497L40.7071 13.4355ZM39 14.1426V52H41V14.1426H39ZM40 51H0V53H40V51ZM1 52V0H-1V52H1ZM0 1H26.1426V-1H0V1Z" fill="#696969" mask="url(#path-1-inside-1_26_124)"/>
<mask id="path-3-inside-2_26_124" fill="white">
<path fill-rule="evenodd" clip-rule="evenodd" d="M39.8574 14.1426L40 14L26 0V14.1426L39.8574 14.1426Z"/>
</mask>
<path fill-rule="evenodd" clip-rule="evenodd" d="M39.8574 14.1426L40 14L26 0V14.1426L39.8574 14.1426Z" fill="white"/>
<path d="M40 14L40.7071 14.7071L41.4142 14L40.7071 13.2929L40 14ZM39.8574 14.1426V15.1426H40.2716L40.5645 14.8497L39.8574 14.1426ZM26 0L26.7071 -0.707107L25 -2.41421V0H26ZM26 14.1426H25V15.1426H26V14.1426ZM39.2929 13.2929L39.1503 13.4355L40.5645 14.8497L40.7071 14.7071L39.2929 13.2929ZM25.2929 0.707107L39.2929 14.7071L40.7071 13.2929L26.7071 -0.707107L25.2929 0.707107ZM27 14.1426V0H25V14.1426H27ZM39.8574 13.1426L26 13.1426V15.1426L39.8574 15.1426V13.1426Z" fill="#696969" mask="url(#path-3-inside-2_26_124)"/>
<path d="M52.0259 30.0943C52.6303 29.5277 52.6609 28.5785 52.0943 27.9741L42.8611 18.1253C42.2945 17.521 41.3453 17.4903 40.7409 18.0569C40.1365 18.6235 40.1059 19.5728 40.6725 20.1772L48.8798 28.9316L40.1253 37.1389C39.521 37.7055 39.4903 38.6547 40.0569 39.2591C40.6235 39.8635 41.5728 39.8941 42.1772 39.3275L52.0259 30.0943ZM19.9516 29.4992L50.9516 30.4992L51.0484 27.5008L20.0484 26.5008L19.9516 29.4992Z" fill="#696969"/>
</svg>
