<svg width="200" height="200" viewBox="0 0 200 200" fill="none" xmlns="http://www.w3.org/2000/svg">
<path fill-rule="evenodd" clip-rule="evenodd" d="M100 200C155.228 200 200 155.228 200 100C200 44.7715 155.228 0 100 0C44.7715 0 0 44.7715 0 100C0 155.228 44.7715 200 100 200ZM81.3876 48.298C86.721 48.0605 88.4168 47.998 102 47.998C115.583 47.998 117.279 48.048 122.613 48.298C127.933 48.5439 131.563 49.3855 134.75 50.623C138.046 51.8939 140.829 53.6105 143.608 56.3897C146.383 59.1689 148.1 61.9605 149.375 65.248C150.608 68.4314 151.45 72.0647 151.7 77.3855C151.938 82.7189 152 84.4147 152 97.998C152 111.581 151.95 113.277 151.7 118.611C151.454 123.931 150.608 127.561 149.375 130.748C148.104 134.044 146.383 136.827 143.608 139.606C140.829 142.381 138.033 144.098 134.75 145.373C131.563 146.606 127.933 147.448 122.613 147.698C117.279 147.936 115.583 147.998 102 147.998C88.4168 147.998 86.721 147.948 81.3876 147.698C76.0668 147.452 72.4418 146.606 69.2501 145.373C65.9585 144.102 63.171 142.381 60.3918 139.606C57.6126 136.827 55.9001 134.031 54.6251 130.748C53.3876 127.561 52.5501 123.931 52.3001 118.611C52.0626 113.277 52.0001 111.581 52.0001 97.998C52.0001 84.4147 52.0501 82.7189 52.3001 77.3855C52.546 72.0605 53.3876 68.4355 54.6251 65.248C55.896 61.9564 57.6126 59.1689 60.3918 56.3897C63.171 53.6105 65.9626 51.898 69.2501 50.623C72.4376 49.3855 76.0626 48.548 81.3876 48.298ZM122.208 57.2939C116.938 57.0647 115.346 56.998 102 56.998L101.813 56.873C88.6459 56.873 86.9297 56.9337 81.8075 57.1145L81.5668 57.123C76.6918 57.373 74.0626 58.1855 72.3126 58.8772C69.9418 59.748 68.3126 60.873 66.5668 62.6189C64.8126 64.373 63.6918 65.998 62.8168 68.373C62.1293 70.123 61.321 72.8064 61.0668 77.6814L61.0561 77.9849C60.8767 83.061 60.8126 84.8759 60.8126 97.9355C60.8126 111.008 60.8769 112.807 61.0568 117.839L61.0668 118.119C61.321 122.994 62.1293 125.681 62.8168 127.431C63.6918 129.748 64.8126 131.436 66.5668 133.181C68.3126 134.931 69.9418 135.994 72.3126 136.927C74.0626 137.615 76.7501 138.427 81.6293 138.681C86.9335 138.927 88.496 138.99 101.875 138.99C115.25 138.99 116.813 138.936 122.121 138.698C126.996 138.477 129.683 137.661 131.433 136.977C133.75 136.073 135.438 134.99 137.183 133.244C138.933 131.486 139.996 129.827 140.929 127.486C141.617 125.727 142.429 123.081 142.683 118.206C142.929 112.936 142.992 111.348 142.992 97.998C142.992 84.648 142.938 83.0647 142.7 77.7897C142.479 72.9147 141.663 70.2689 140.979 68.5105C140.075 66.1689 138.992 64.5064 137.246 62.7564C135.488 61.0105 133.829 59.9272 131.488 59.023C129.729 58.3314 127.083 57.523 122.208 57.2939ZM76.3251 97.998C76.3251 83.823 87.8126 72.323 102 72.323C116.175 72.323 127.675 83.8105 127.675 97.998C127.675 112.173 116.188 123.673 102 123.673C87.8251 123.673 76.3251 112.186 76.3251 97.998ZM85.3335 97.998C85.3335 107.206 92.7918 114.665 102 114.665C111.208 114.665 118.667 107.206 118.667 97.998C118.667 88.7897 111.208 81.3314 102 81.3314C92.7918 81.3314 85.3335 88.7897 85.3335 97.998ZM128.692 77.3105C132 77.3105 134.692 74.623 134.692 71.3105C134.692 68.0022 131.996 65.3105 128.692 65.3147C125.383 65.3147 122.692 68.0022 122.692 71.3105C122.692 74.6189 125.379 77.3105 128.692 77.3105Z" fill="#979797"/>
</svg>
