<svg width="200" height="200" viewBox="0 0 200 200" fill="none" xmlns="http://www.w3.org/2000/svg">
<path fill-rule="evenodd" clip-rule="evenodd" d="M100 200C155.228 200 200 155.228 200 100C200 44.7715 155.228 0 100 0C44.7715 0 0 44.7715 0 100C0 155.228 44.7715 200 100 200ZM80.0251 67.5184C74.7591 67.8756 73.5648 67.9566 70.5793 65.5314L62.9835 59.5022C62.2085 58.7272 62.6001 57.7522 64.5418 57.5605L117.854 53.6689C122.329 53.2814 124.667 54.8397 126.417 56.198L135.567 62.8105C135.954 63.0022 136.925 64.1689 135.758 64.1689L80.696 67.473C80.4652 67.4885 80.2417 67.5037 80.0251 67.5184ZM73.8835 136.298V78.3647C73.8835 75.8397 74.6626 74.6689 76.996 74.473L140.233 70.7772C142.379 70.5855 143.35 71.948 143.35 74.473V132.019C143.35 134.548 142.958 136.69 139.454 136.881L78.9418 140.381C75.4376 140.577 73.8835 139.411 73.8835 136.298ZM131.871 85.1689C133.621 84.9689 134.008 83.2189 133.621 81.4689L120.196 82.2522C118.25 82.4439 116.696 83.998 117.083 86.1397L122.146 86.7189V113.552L102.296 83.223L87.896 84.1939C85.1751 84.3897 84.2001 86.9147 84.5918 88.6647L89.446 89.0564V127.361L85.946 128.331C84.5835 128.719 84.196 130.665 84.5835 131.44L98.0085 130.665C102.875 130.665 102.875 127.165 102.875 127.165L96.8418 125.798V96.8314L115.913 126.773L115.917 126.779C118.247 129.687 119.027 130.661 122.142 130.661C124.088 130.661 126.421 129.881 128.954 128.519V85.7522L131.871 85.1689ZM115.525 48.2272L60.0668 52.3105C55.596 52.6939 54.0376 55.6147 54.0376 59.1105V119.769C54.0376 122.494 55.0085 124.823 57.3418 127.936L70.3793 144.852C72.521 147.577 74.471 148.161 78.5543 147.965L142.963 144.073C148.408 143.69 149.963 141.156 149.963 136.881V68.6397C149.963 66.4285 149.087 65.7889 146.513 63.9088C146.371 63.805 146.224 63.6974 146.071 63.5855L128.367 51.1439C124.088 48.0314 122.333 47.6439 115.525 48.2272Z" fill="#979797"/>
</svg>
